<svg id="Layer_1" data-name="Layer 1" xmlns="http://www.w3.org/2000/svg" viewBox="0 0 548.7 385.22">
  <defs>
    <style>
      .cls-1 {
        fill: #e5e2e2;
      }

      .cls-2 {
        fill: #9a1915;
      }

      .cls-3 {
        fill: #95c11f;
      }

      .cls-4 {
        fill: #318c2c;
      }

      .cls-5 {
        fill: #f39222;
      }

      .cls-6 {
        fill: #0e6d31;
      }

      .cls-7 {
        fill: #81bd4f;
      }

      .cls-8 {
        fill: #3b2980;
      }

      .cls-9 {
        fill: #30358c;
      }

      .cls-10 {
        fill: #ec6625;
      }

      .cls-11 {
        fill: #741425;
      }

      .cls-12 {
        fill: #3266af;
      }

      .cls-13 {
        fill: #fdc300;
      }

      .cls-14 {
        fill: #fae4dd;
      }

      .cls-15 {
        fill: #edc7ba;
      }

      .cls-16 {
        fill: #0085ac;
      }

      .cls-17 {
        fill: #fff;
      }

      .cls-18 {
        fill: #e30613;
      }

      .cls-19 {
        fill: #f9c7b9;
      }

      .cls-20 {
        fill: #fbe4dd;
      }

      .cls-21 {
        fill: #f9d5c7;
      }

      .cls-22 {
        fill: #feeee7;
      }

      .cls-23 {
        fill: #fef6f4;
      }

      .cls-24 {
        fill: #f6b7c7;
      }

      .cls-25 {
        fill: #981915;
      }

      .cls-26 {
        fill: #3f4d9c;
      }

      .cls-27 {
        fill: none;
        stroke: #3f4d9c;
        stroke-miterlimit: 10;
        stroke-width: 6px;
      }

      .cls-28 {
        fill: #69bbea;
      }
    </style>
  </defs>
  <ellipse class="cls-1" cx="274.35" cy="360.22" rx="274.35" ry="25"/>
  <g>
    <path class="cls-2" d="M240.77,471.12c4.49-1.47,5.33,5.28,4.28,10.3s.87,12,.87,12-.95,3-5.14.61L240,480.37S235.24,472.94,240.77,471.12Z" transform="translate(-151.47 -142.59)"/>
    <path class="cls-3" d="M246.34,476.89s-1-18.79-24.85-25.71c0,0-7.42,13.92,15.22,29.48C236.71,480.66,247.76,486.86,246.34,476.89Z" transform="translate(-151.47 -142.59)"/>
    <path class="cls-4" d="M245,482.26l-23.53-30.55s-6,9,6.85,22.51C238.34,484.82,242.3,482.74,245,482.26Z" transform="translate(-151.47 -142.59)"/>
  </g>
  <g>
    <path class="cls-2" d="M288.82,479.57c4.5-1.48,5.33,5.27,4.29,10.29s.86,12,.86,12-1,3-5.14.61l-.75-13.62S283.29,481.38,288.82,479.57Z" transform="translate(-151.47 -142.59)"/>
    <path class="cls-3" d="M294.39,485.33s-1-18.79-24.85-25.71c0,0-7.42,13.92,15.23,29.48C284.77,489.1,295.81,495.3,294.39,485.33Z" transform="translate(-151.47 -142.59)"/>
    <path class="cls-4" d="M293,490.7l-23.53-30.55s-6,9,6.85,22.51C286.39,493.26,290.35,491.18,293,490.7Z" transform="translate(-151.47 -142.59)"/>
  </g>
  <g>
    <path class="cls-2" d="M335.58,465.28c4.49-1.48,5.33,5.27,4.28,10.3s.87,12,.87,12-1,3-5.15.61l-.75-13.62S330.05,467.1,335.58,465.28Z" transform="translate(-151.47 -142.59)"/>
    <path class="cls-3" d="M341.14,471.05s-1-18.8-24.84-25.71c0,0-7.43,13.91,15.22,29.48C331.52,474.82,342.57,481,341.14,471.05Z" transform="translate(-151.47 -142.59)"/>
    <path class="cls-4" d="M339.76,476.42l-23.53-30.56s-6,9,6.85,22.52C333.14,479,337.11,476.9,339.76,476.42Z" transform="translate(-151.47 -142.59)"/>
  </g>
  <g>
    <path class="cls-2" d="M521.44,483.8c-4.49-1.48-5.33,5.27-4.28,10.3s-.87,12-.87,12,1,3,5.14.61l.75-13.62S527,485.62,521.44,483.8Z" transform="translate(-151.47 -142.59)"/>
    <path class="cls-3" d="M515.88,489.57s1-18.8,24.84-25.71c0,0,7.42,13.91-15.22,29.48C525.5,493.34,514.45,499.53,515.88,489.57Z" transform="translate(-151.47 -142.59)"/>
    <path class="cls-4" d="M517.25,494.94l23.54-30.56s6,9-6.85,22.52C523.88,497.49,519.91,495.42,517.25,494.94Z" transform="translate(-151.47 -142.59)"/>
  </g>
  <g>
    <path class="cls-2" d="M563.65,489.64c-4.49-1.47-5.33,5.28-4.28,10.3s-.87,12-.87,12,1,3,5.14.61l.75-13.62S569.18,491.46,563.65,489.64Z" transform="translate(-151.47 -142.59)"/>
    <path class="cls-3" d="M558.08,495.41s1-18.8,24.85-25.71c0,0,7.42,13.91-15.22,29.48C567.71,499.18,556.66,505.38,558.08,495.41Z" transform="translate(-151.47 -142.59)"/>
    <path class="cls-4" d="M559.46,500.78,583,470.23s6,9-6.85,22.51C566.08,503.34,562.12,501.26,559.46,500.78Z" transform="translate(-151.47 -142.59)"/>
  </g>
  <g>
    <path class="cls-5" d="M250.79,237a47.85,47.85,0,0,1,.3-5.7l.48-.73-.78-.51-10.23,15.63c-.54-1.37-2.36-2.37-4.55-2.35-2.59,0-4.67,1.48-4.65,3.24s2.13,3.16,4.72,3.13c2.1,0,3.88-1,4.45-2.29l7.23-11c4.48,9.54-4.42,11.69-4.42,11.69C251.2,247,250.82,239,250.79,237Z" transform="translate(-151.47 -142.59)"/>
    <path class="cls-6" d="M301,296.18a51,51,0,0,1-.26-5.95l.42-.81-.85-.45-9,17.26c-.69-1.36-2.69-2.21-5-2-2.68.29-4.7,2-4.51,3.83s2.54,3.07,5.22,2.78c2.19-.24,3.93-1.42,4.4-2.83l6.39-12.19c5.61,9.45-3.42,12.57-3.42,12.57C302.41,306.44,301.2,298.18,301,296.18Z" transform="translate(-151.47 -142.59)"/>
    <path class="cls-7" d="M247.49,269.66c-1.57-2.12-3-4.31-3.59-5.19v-.39h-.24l0,0v0h-.81l.18,21.79c-1.41-1-3.83-.76-5.94.67-2.49,1.71-3.58,4.46-2.42,6.16s4.11,1.69,6.61,0c2-1.39,3.13-3.47,2.85-5.11l-.1-12.31c9.68,4.78,2.94,12.14,2.94,12.14A6.89,6.89,0,0,0,250,280.6C251.26,276.56,249.43,272.27,247.49,269.66Zm-.44,4.58c-1.37-1.61-2.56-3.05-3.1-3.71v-.11c7.23,3.55,6.32,9.12,6.07,10.17A13.66,13.66,0,0,0,247.05,274.24Z" transform="translate(-151.47 -142.59)"/>
    <path class="cls-8" d="M182.36,234h0l-1.94-29.34A.94.94,0,0,0,180,204l-14.25-9.8a1,1,0,0,0-1.5.84l1.45,26.36a.94.94,0,0,1-1,1,8.07,8.07,0,0,0-6.53,2.29s-3.21,3.1-.56,6.29a1.05,1.05,0,0,0,.28.24c.72.4,3.63,1.76,6.93-1.06,0,0,2.75-2.49,2.92-4.57a2.89,2.89,0,0,0,0-.91h0l-.9-16.33a1,1,0,0,1,1.48-.85l10.48,6.91a1,1,0,0,1,.42.74l1,15.47a.94.94,0,0,1-1,1,8.08,8.08,0,0,0-6.49,2.29s-3.2,3.1-.55,6.3a1,1,0,0,0,.27.23c.72.41,3.64,1.76,6.93-1.05,0,0,2.75-2.49,2.92-4.57A2.68,2.68,0,0,0,182.36,234ZM166.54,202.1v-.22A1,1,0,0,1,168,201l10.39,6.82a1,1,0,0,1,.43.74h0a1,1,0,0,1-1.46.87L167,202.86A1,1,0,0,1,166.54,202.1Z" transform="translate(-151.47 -142.59)"/>
    <path class="cls-9" d="M189.62,275.39,194.17,258l-21.36-5.34-4.29,16.75a4.76,4.76,0,0,0-4.23-.84s-2.47.72-1.93,3.08A3.22,3.22,0,0,0,166.1,273a5.08,5.08,0,0,0,2.58-1.5,1.6,1.6,0,0,0,.36-.89h0l3.8-14.81,9.4,2.37L179.11,272a4.72,4.72,0,0,0-4.2-.82s-2.47.72-1.93,3.08a3.22,3.22,0,0,0,3.74,1.38,5.08,5.08,0,0,0,2.58-1.5,1.55,1.55,0,0,0,.36-.84h0l3.42-14.86,9.45,2.37L189,274.28a4.72,4.72,0,0,0-4.17-.79s-2.47.72-1.93,3.07a3.2,3.2,0,0,0,3.74,1.38,5.12,5.12,0,0,0,2.58-1.49A1.54,1.54,0,0,0,189.62,275.39Z" transform="translate(-151.47 -142.59)"/>
    <path class="cls-10" d="M215.21,194.75a7.23,7.23,0,0,0-2.27-6.2c-2.22-2.53-7.51-5.31-8.91-6l-.12-.39-1.29.42,9.14,28.16c-1,.16-4.54,1-6,4,0,0-1.92,3.61,1.39,5.58,0,0,3.44,1,5.77-2.77,0,0,1.74-2.87,1-4.67a2.3,2.3,0,0,0-.53-1.42l-4.29-13.23a9.72,9.72,0,0,1,6.21,2,4.21,4.21,0,0,1,.41.28,10.72,10.72,0,0,1-1.1,3.45,8.86,8.86,0,0,0,1.72-2.91c3,3,.22,8,.22,8,4-4.67,1.24-8.52.13-9.75A6.94,6.94,0,0,0,215.21,194.75ZM212,189.87a4.79,4.79,0,0,1,2.4,3.94c-2.07-2.35-6.8-4.92-8.57-5.84l0-.11A9.72,9.72,0,0,1,212,189.87Zm-4.15,3.25a9.8,9.8,0,0,1,5.58,2,5.75,5.75,0,0,1,.84.63,10.42,10.42,0,0,1-.27,1.1A50.43,50.43,0,0,0,207.82,193.12Zm6.51,4a6.58,6.58,0,0,0,.42-.84,4.67,4.67,0,0,1,.94,2A16.08,16.08,0,0,0,214.33,197.14Z" transform="translate(-151.47 -142.59)"/>
    <path class="cls-11" d="M270.73,297l-4.49-26.29-1,.17,4.25,24.88c-1.51-.27-5.41-.28-5.89,6.64,0,0,0,5.31,4.72,2.36C268.34,304.73,272.66,301.22,270.73,297Zm-3.21,5.52c-3.9,4-2.48-.59-2.48-.59,2.24-5.78,4.48-5,4.48-5C270.82,298.83,267.52,302.49,267.52,302.49Z" transform="translate(-151.47 -142.59)"/>
    <path class="cls-12" d="M217.16,256.81s-2.94-1.93-6.19,1a7.94,7.94,0,0,0-2.42,4,2.53,2.53,0,0,0,0,.78h0v28.72h1.33v-26.8l.05,0s4.43.82,7-2.08C216.9,262.45,219.72,259.59,217.16,256.81Z" transform="translate(-151.47 -142.59)"/>
  </g>
  <g>
    <g>
      <path class="cls-13" d="M510.71,393.06s-8.24-1.75-8.37-1.86c21.56.43,17.85-53,11.58-75.13-7-24.86-43.68-59.81-101.15-49.48-21.84,3.92-73.75,15.46-74.48,99.81-.12,13.63,2.08,23.93,5.85,31.65-6.08,4.34-17.86,14.77-17.68,30.28,0,0,14,19.94,30.17,5.18,0,0-8.95-13.1-5.63-25.62,24.18,24.58,74.42.2,74.42.2s51.65,7.81,70.83-9.07c3.19,14.42-10.47,27.34-10.47,27.34,12.71,17.86,30.58,1.34,30.58,1.34A45.18,45.18,0,0,0,510.71,393.06Z" transform="translate(-151.47 -142.59)"/>
      <path class="cls-14" d="M352.55,341.19s-.35,52.45,25.41,68.87c25.48,16.25,64.32,7,64.32,7,34-6.75,44.06-19.47,50-35.75s6.36-45.62,4.62-60.6c-2.37-20.53-28.56-45.85-80.36-39.16C356.22,289.33,352.64,331.15,352.55,341.19Z" transform="translate(-151.47 -142.59)"/>
      <path class="cls-15" d="M393.59,430.25s-19.95,5.87-19.95,10.88c0,7.26,24,6.35,31.29-6.8S400.85,427.07,393.59,430.25Z" transform="translate(-151.47 -142.59)"/>
      <path class="cls-15" d="M454.38,448.53s0,20.8,4.85,22.21c7,2,12.83-21.29,2.24-31.94S453.37,440.68,454.38,448.53Z" transform="translate(-151.47 -142.59)"/>
      <path class="cls-15" d="M435.4,467.18s.07,28.76,6.72,30.71c9.63,2.81,17.74-29.45,3.1-44.18S434,456.32,435.4,467.18Z" transform="translate(-151.47 -142.59)"/>
      <path class="cls-15" d="M421.93,467.18s-.07,28.76-6.72,30.71c-9.63,2.81-17.74-29.45-3.1-44.18S423.33,456.32,421.93,467.18Z" transform="translate(-151.47 -142.59)"/>
      <path class="cls-16" d="M401.3,467.89s-2.61,13.4,0,15c6.81,4.08,21.77-1.36,21.77-1.36l2.72-4.08h6.35l.45,4.53s23.13,2.27,24,.46.9-14.51-1.82-16.78S406.74,462,401.3,467.89Z" transform="translate(-151.47 -142.59)"/>
      <path class="cls-17" d="M404.66,442.4s-.16,20-4.39,26.83c0,0,25.2,8.12,57.22-2,0,0-4.06-22.92-3.74-33.32s-4.39-21-4.39-21l-36.9,5S401.57,421.92,404.66,442.4Z" transform="translate(-151.47 -142.59)"/>
      <path class="cls-18" d="M405.53,418.78s-15.67,8.71-19.19,9.2c0,0-1.56,13.69,4.08,20.41,0,0,9.47-1.87,14.46-5.55l15.82-25.36Z" transform="translate(-151.47 -142.59)"/>
      <path class="cls-18" d="M436.52,417.86l16.75,20,2,15.12s12.35-1.63,15.76-5c0,0-10.56-29.91-21.13-33.65C449.85,414.28,434.08,411,436.52,417.86Z" transform="translate(-151.47 -142.59)"/>
      <path class="cls-18" d="M439.94,419.24c0,4-5.65,7.21-12.6,7.21s-12.6-3.23-12.6-7.21,5.64-7.22,12.6-7.22S439.94,415.25,439.94,419.24Z" transform="translate(-151.47 -142.59)"/>
      <path class="cls-19" d="M436.72,417.5c0,3-4.2,5.37-9.38,5.37s-9.38-2.4-9.38-5.37,4.19-5.37,9.38-5.37S436.72,414.54,436.72,417.5Z" transform="translate(-151.47 -142.59)"/>
      <path class="cls-20" d="M352.55,341.19s-.35,52.45,25.41,68.87c25.48,16.25,64.32,7,64.32,7,34-6.75,44.06-19.47,50-35.75s6.36-45.62,4.62-60.6c-2.37-20.53-28.56-45.85-80.36-39.16C356.22,289.33,352.64,331.15,352.55,341.19Z" transform="translate(-151.47 -142.59)"/>
      <path class="cls-21" d="M492.17,375.11a26.3,26.3,0,1,1-26.06-26.54A26.31,26.31,0,0,1,492.17,375.11Z" transform="translate(-151.47 -142.59)"/>
      <path class="cls-2" d="M487.85,375.07a22,22,0,1,1-21.78-22.18A22,22,0,0,1,487.85,375.07Z" transform="translate(-151.47 -142.59)"/>
      <path class="cls-17" d="M458.26,373.33c0,3.24-2.14,5.86-4.7,5.84s-4.62-2.68-4.6-5.93,2.13-5.86,4.7-5.84S458.28,370.08,458.26,373.33Z" transform="translate(-151.47 -142.59)"/>
      <path class="cls-22" d="M465.67,330c-4.69-3.14-6.3-8.95-3.61-13s8.68-4.74,13.37-1.59,6.3,9,3.6,13S470.35,333.1,465.67,330Z" transform="translate(-151.47 -142.59)"/>
      <path class="cls-23" d="M469.3,324.9a3.78,3.78,0,1,1,5.62-.74A4,4,0,0,1,469.3,324.9Z" transform="translate(-151.47 -142.59)"/>
      <path class="cls-2" d="M482,361.05a1.21,1.21,0,0,1-1.7.06h0a1.19,1.19,0,0,1-.06-1.7l5.06-5.46a1.19,1.19,0,0,1,1.69-.07h0a1.2,1.2,0,0,1,.07,1.7Z" transform="translate(-151.47 -142.59)"/>
      <path class="cls-21" d="M413.76,378.56A26.29,26.29,0,1,1,387.71,352,26.29,26.29,0,0,1,413.76,378.56Z" transform="translate(-151.47 -142.59)"/>
      <path class="cls-2" d="M462.77,334.34a8.29,8.29,0,0,0-9.75,4.44c-.77,1.58,1.79,2.51,2.55.94a5.08,5.08,0,0,1,1.25-1.61l2.77-1.26.08,0a6.87,6.87,0,0,1,1.57,0c.19,0,1.15.2.59.07C463.52,337.31,464.47,334.76,462.77,334.34Z" transform="translate(-151.47 -142.59)"/>
      <path class="cls-2" d="M408.82,378.51a22,22,0,1,1-21.77-22.17A22,22,0,0,1,408.82,378.51Z" transform="translate(-151.47 -142.59)"/>
      <path class="cls-17" d="M382.24,374.56c0,3.25-2.13,5.86-4.69,5.84s-4.62-2.68-4.59-5.92,2.13-5.86,4.69-5.84S382.27,371.31,382.24,374.56Z" transform="translate(-151.47 -142.59)"/>
      <path class="cls-2" d="M370.18,365.53a1.19,1.19,0,0,1-.33,1.66h0a1.21,1.21,0,0,1-1.67-.33l-4.13-6.2a1.19,1.19,0,0,1,.33-1.66h0a1.2,1.2,0,0,1,1.67.33Z" transform="translate(-151.47 -142.59)"/>
      <path class="cls-2" d="M433.91,401.39a3.53,3.53,0,0,1-.22-4.64,1.36,1.36,0,0,0-2.23-1.56,6.82,6.82,0,0,0-1.24,3.92,1.48,1.48,0,0,0-.4.32c.36-.42,0,0-.11.08a3.18,3.18,0,0,1-.77.47,5.22,5.22,0,0,1-4.08-.23,1.36,1.36,0,0,0-.94,2.55c2.26.87,5,1,7.05-.36a5.93,5.93,0,0,0,.87,1.22C433.05,404.42,435.13,402.67,433.91,401.39Z" transform="translate(-151.47 -142.59)"/>
      <path class="cls-24" d="M402.53,407.58c0,3.68-4.45,6.73-10,6.8s-10.14-2.87-10.19-6.56,4.45-6.73,10-6.8S402.48,403.89,402.53,407.58Z" transform="translate(-151.47 -142.59)"/>
      <path class="cls-24" d="M469.89,402.46c.4,3.67-3.78,7.14-9.34,7.74s-10.38-1.88-10.78-5.55,3.79-7.12,9.34-7.73S469.49,398.8,469.89,402.46Z" transform="translate(-151.47 -142.59)"/>
      <path class="cls-13" d="M496.8,305.06c-9.12-12.33-43.81-43.49-114.73-15.89-47,18.28-34.93,92.65-34.93,92.65,6.08-20.58,28.67-35.62,28.67-35.62-4.47,16.1-.7,19.77-.7,19.77,6.53-19.22,28.36-32.35,28.36-32.35-9.71,15.61-8.78,24.29-8.78,24.29,3.46-11.57,26.39-23.93,26.39-23.93-2.31,5.73-10.18,14.24-10.18,14.24,13.4-4,52.27-35.85,67.94-49,3,12,10.81,38.23,24.15,50.57C503,349.78,510.27,323.27,496.8,305.06Z" transform="translate(-151.47 -142.59)"/>
      <path class="cls-18" d="M435.72,438.58c-4.22-.82-6.38.94-6.73,1.38-.39-.39-2.77-1.86-6.85-.51-4.48,1.5-5.35,8.9-3.74,13.49a12,12,0,0,0,7.48,7.74c2.65.77,4.15-.07,4.44-.26a5.42,5.42,0,0,0,4.43-.32,12,12,0,0,0,6.43-8.64C442.18,446.7,440.36,439.48,435.72,438.58Z" transform="translate(-151.47 -142.59)"/>
      <path class="cls-25" d="M429.06,437.65c-.47-.12-.51.58-.37,1.09a3.21,3.21,0,0,1,0,1.23s.12.3.53,0v-1.41S429.64,437.8,429.06,437.65Z" transform="translate(-151.47 -142.59)"/>
      <path class="cls-3" d="M429.1,437.15a5.37,5.37,0,0,1,5.77-1.44s-.57,2.67-5,2.85C429.87,438.56,427.86,438.45,429.1,437.15Z" transform="translate(-151.47 -142.59)"/>
    </g>
    <g>
      <path class="cls-26" d="M338.91,320.13A29,29,0,0,0,310,349v4.63a29,29,0,0,0,28.87,28.87h6.77V320.13Z" transform="translate(-151.47 -142.59)"/>
      <path class="cls-26" d="M521.21,319.63a29,29,0,0,1,28.87,28.87v4.64A29,29,0,0,1,521.21,382h-6.77V319.63Z" transform="translate(-151.47 -142.59)"/>
      <path class="cls-27" d="M334,324.19s2.11-68.88,87.27-68.88c0,0,104.19-9.09,105.92,77.61" transform="translate(-151.47 -142.59)"/>
    </g>
  </g>
  <path class="cls-28" d="M655.89,199.76a27.49,27.49,0,0,0-26.66-27.47,25.52,25.52,0,0,0-38.13-14.92,25.53,25.53,0,0,0-48.69,10.75c0,.69,0,1.36.09,2a29,29,0,1,0,6.86,57.55h79.9v-.46A27.5,27.5,0,0,0,655.89,199.76Z" transform="translate(-151.47 -142.59)"/>
</svg>
